<svg width="1024" height="1024" viewBox="0 0 1024 1024" fill="none" xmlns="http://www.w3.org/2000/svg">
<path d="M797.364 823.81C793.161 822.135 572.364 602.321 570.116 597.576C566.394 589.74 569.936 579.287 577.631 575.364C582.777 572.745 587.282 572.504 592.278 574.591C594.606 575.564 617.651 597.756 659.206 639.051C694.069 673.693 743.339 722.572 768.701 747.673C794.064 772.785 816.246 794.987 817.991 797.033C825.024 805.25 822.456 818.814 813.005 823.299C809.223 825.085 801.227 825.355 797.364 823.81ZM478.105 814.426C422.887 808.207 369.119 786.969 326.643 754.583C267.888 709.788 228.631 652.047 211.235 584.84C203.16 553.658 201.986 543.945 202 507.935C202 482.87 202.624 470.997 204.508 460.096C220.078 370.259 269.12 295.862 344.75 247.428C415.639 201.996 501.257 187.789 582.526 207.954C645.34 223.538 704.096 259.722 744.179 307.503C792.656 365.273 817.504 433.059 817.634 507.935C817.736 557.268 807.602 600.642 785.814 644.205C778.203 659.426 760.821 687.289 757.748 689.188C756.153 690.174 721.579 656.947 721.579 654.439C721.593 653.599 723.579 649.96 726.015 646.379C733.698 635.057 747.136 607.107 752.66 590.915C770.897 537.523 770.839 475.332 752.5 422.636C726.609 348.224 665.969 288.44 591.238 263.636C559.65 253.155 535.165 249.82 499.082 251.096C449.547 252.836 408.956 265.839 367.887 293.122C342.749 309.808 316.974 334.728 299.346 359.401C287.647 375.754 271.266 408.328 265.119 427.478C244.447 491.771 249.448 561.66 278.978 621.01C316.336 696.118 386.08 747.509 470.074 761.802C491.602 765.47 531.541 765.151 553.75 761.136C583.062 755.844 618.115 742.667 643.687 727.329L649.167 724.053L667.23 742.072L685.293 760.092L673.348 767.877C640.034 789.651 597.327 805.728 554.866 812.498C537.905 815.194 494.632 816.281 478.105 814.426Z" fill="white"/>
</svg>
